<svg width="24" height="24" viewBox="0 0 57 57" fill="none" xmlns="http://www.w3.org/2000/svg">
<path d="M39.5271 8.78028V5.10557C39.5271 4.13978 38.7262 3.33888 37.7605 3.33888C36.7947 3.33888 35.9938 4.13978 35.9938 5.10557V8.63895H20.6825V5.10557C20.6825 4.13978 19.8816 3.33888 18.9158 3.33888C17.95 3.33888 17.1491 4.13978 17.1491 5.10557V8.78028C10.789 9.36918 7.7032 13.1617 7.23209 18.7915C7.18498 19.4746 7.75032 20.04 8.40988 20.04H48.2664C48.9495 20.04 49.5148 19.4511 49.4442 18.7915C48.973 13.1617 45.8872 9.36918 39.5271 8.78028Z" fill="#CBD0DC"/>
<path d="M47.1828 23.5734H9.49344C8.19787 23.5734 7.13786 24.6334 7.13786 25.9289L7.13786 40.4393C7.13786 47.5061 10.6712 52.2173 18.9158 52.2173H37.7604C46.005 52.2173 49.5384 47.5061 49.5384 40.4393L49.5384 25.9289C49.5384 24.6334 48.4784 23.5734 47.1828 23.5734ZM21.766 43.2896C21.6483 43.3838 21.5305 43.5016 21.4127 43.5723C21.2714 43.6665 21.13 43.7372 20.9887 43.7843C20.8474 43.8549 20.706 43.902 20.5647 43.9256C20.3998 43.9492 20.2585 43.9727 20.0936 43.9727C19.7873 43.9727 19.4811 43.902 19.1984 43.7843C18.8922 43.6665 18.6567 43.5016 18.4211 43.2896C17.9971 42.842 17.738 42.2296 17.738 41.6171C17.738 41.0047 17.9971 40.3922 18.4211 39.9447C18.6567 39.7327 18.8922 39.5678 19.1984 39.45C19.6225 39.2615 20.0936 39.2144 20.5647 39.3087C20.706 39.3322 20.8474 39.3793 20.9887 39.45C21.13 39.4971 21.2714 39.5678 21.4127 39.662C21.5305 39.7562 21.6483 39.8504 21.766 39.9447C22.19 40.3922 22.4492 41.0047 22.4492 41.6171C22.4492 42.2296 22.19 42.842 21.766 43.2896ZM21.766 35.045C21.3185 35.4691 20.706 35.7282 20.0936 35.7282C19.4811 35.7282 18.8687 35.4691 18.4211 35.045C17.9971 34.5975 17.738 33.985 17.738 33.3726C17.738 32.7601 17.9971 32.1477 18.4211 31.7001C19.0807 31.0406 20.1171 30.8286 20.9887 31.2054C21.2949 31.3232 21.554 31.4881 21.766 31.7001C22.19 32.1477 22.4492 32.7601 22.4492 33.3726C22.4492 33.985 22.19 34.5975 21.766 35.045ZM30.0106 43.2896C29.563 43.7136 28.9506 43.9727 28.3381 43.9727C27.7257 43.9727 27.1132 43.7136 26.6656 43.2896C26.2416 42.842 25.9825 42.2296 25.9825 41.6171C25.9825 41.0047 26.2416 40.3922 26.6656 39.9447C27.5372 39.0731 29.139 39.0731 30.0106 39.9447C30.4346 40.3922 30.6937 41.0047 30.6937 41.6171C30.6937 42.2296 30.4346 42.842 30.0106 43.2896ZM30.0106 35.045C29.8928 35.1393 29.775 35.2335 29.6572 35.3277C29.5159 35.4219 29.3746 35.4926 29.2332 35.5397C29.0919 35.6104 28.9506 35.6575 28.8092 35.6811C28.6443 35.7046 28.503 35.7282 28.3381 35.7282C27.7257 35.7282 27.1132 35.4691 26.6656 35.045C26.2416 34.5975 25.9825 33.985 25.9825 33.3726C25.9825 32.7601 26.2416 32.1477 26.6656 31.7001C26.8777 31.4881 27.1368 31.3232 27.443 31.2054C28.3146 30.8286 29.351 31.0406 30.0106 31.7001C30.4346 32.1477 30.6937 32.7601 30.6937 33.3726C30.6937 33.985 30.4346 34.5975 30.0106 35.045ZM38.2551 43.2896C37.8076 43.7136 37.1951 43.9727 36.5827 43.9727C35.9702 43.9727 35.3578 43.7136 34.9102 43.2896C34.4862 42.842 34.2271 42.2296 34.2271 41.6171C34.2271 41.0047 34.4862 40.3922 34.9102 39.9447C35.7818 39.0731 37.3836 39.0731 38.2551 39.9447C38.6791 40.3922 38.9382 41.0047 38.9382 41.6171C38.9382 42.2296 38.6791 42.842 38.2551 43.2896ZM38.2551 35.045C38.1373 35.1393 38.0196 35.2335 37.9018 35.3277C37.7604 35.4219 37.6191 35.4926 37.4778 35.5397C37.3364 35.6104 37.1951 35.6575 37.0538 35.6811C36.8889 35.7046 36.724 35.7282 36.5827 35.7282C35.9702 35.7282 35.3578 35.4691 34.9102 35.045C34.4862 34.5975 34.2271 33.985 34.2271 33.3726C34.2271 32.7601 34.4862 32.1477 34.9102 31.7001C35.1458 31.4881 35.3813 31.3232 35.6875 31.2054C36.1115 31.017 36.5827 30.9699 37.0538 31.0641C37.1951 31.0877 37.3364 31.1348 37.4778 31.2054C37.6191 31.2526 37.7604 31.3232 37.9018 31.4174C38.0196 31.5117 38.1373 31.6059 38.2551 31.7001C38.6791 32.1477 38.9382 32.7601 38.9382 33.3726C38.9382 33.985 38.6791 34.5975 38.2551 35.045Z" fill="#CBD0DC"/>
</svg>
