<svg width="24" height="24" viewBox="0 0 57 57" fill="none" xmlns="http://www.w3.org/2000/svg">
<path d="M52.197 17.9259C52.197 19.4806 50.925 20.7526 49.3703 20.7526H7.91203C6.35734 20.7526 5.08533 19.4806 5.08533 17.9259V17.9023C5.08533 12.508 9.44316 8.15021 14.8374 8.15021H42.4213C47.8156 8.15021 52.197 12.5316 52.197 17.9259Z" fill="#0B80F3"/>
<path d="M5.08533 27.1127L5.08533 38.9141C5.08533 44.3084 9.44316 48.6662 14.8374 48.6662H42.4213C47.8156 48.6662 52.197 44.2849 52.197 38.8906V27.1127C52.197 25.558 50.925 24.2859 49.3703 24.2859H7.91203C6.35734 24.2859 5.08533 25.558 5.08533 27.1127ZM19.2188 40.775H14.5077C13.5419 40.775 12.741 39.9741 12.741 39.0084C12.741 38.0426 13.5419 37.2417 14.5077 37.2417H19.2188C20.1846 37.2417 20.9855 38.0426 20.9855 39.0084C20.9855 39.9741 20.1846 40.775 19.2188 40.775ZM34.5301 40.775H25.1078C24.142 40.775 23.3411 39.9741 23.3411 39.0084C23.3411 38.0426 24.142 37.2417 25.1078 37.2417H34.5301C35.4959 37.2417 36.2968 38.0426 36.2968 39.0084C36.2968 39.9741 35.4959 40.775 34.5301 40.775Z" fill="#0B80F3"/>
</svg>
