<svg width="24" height="24" viewBox="0 0 57 57" fill="none" xmlns="http://www.w3.org/2000/svg">
<path d="M28.641 5.10569C15.6618 5.10569 5.08521 15.6823 5.08521 28.6615C5.08521 41.6408 15.6618 52.2174 28.641 52.2174C41.6203 52.2174 52.1969 41.6408 52.1969 28.6615C52.1969 15.6823 41.6203 5.10569 28.641 5.10569ZM26.8744 19.2392C26.8744 18.2734 27.6753 17.4725 28.641 17.4725C29.6068 17.4725 30.4077 18.2734 30.4077 19.2392L30.4077 31.0171C30.4077 31.9829 29.6068 32.7838 28.641 32.7838C27.6753 32.7838 26.8744 31.9829 26.8744 31.0171L26.8744 19.2392ZM30.8082 38.979C30.6904 39.2852 30.5255 39.5208 30.3135 39.7563C30.078 39.9683 29.8188 40.1332 29.5362 40.251C29.2535 40.3688 28.9473 40.4395 28.641 40.4395C28.3348 40.4395 28.0286 40.3688 27.7459 40.251C27.4633 40.1332 27.2041 39.9683 26.9686 39.7563C26.7566 39.5208 26.5917 39.2852 26.4739 38.979C26.3561 38.6963 26.2855 38.3901 26.2855 38.0839C26.2855 37.7776 26.3561 37.4714 26.4739 37.1887C26.5917 36.9061 26.7566 36.647 26.9686 36.4114C27.2041 36.1994 27.4633 36.0345 27.7459 35.9167C28.3113 35.6812 28.9708 35.6812 29.5362 35.9167C29.8188 36.0345 30.078 36.1994 30.3135 36.4114C30.5255 36.647 30.6904 36.9061 30.8082 37.1887C30.926 37.4714 30.9966 37.7776 30.9966 38.0839C30.9966 38.3901 30.926 38.6963 30.8082 38.979Z" fill="#CBD0DC"/>
</svg>
